<svg width="1110" height="339" viewBox="0 0 1110 339" fill="none" xmlns="http://www.w3.org/2000/svg">
<path d="M8.67993e-07 266.084L97.552 11.284H160.888L258.44 266.084H198.38L177.268 208.936H81.172L59.696 266.084H8.67993e-07ZM96.096 162.344H161.98L129.584 76.076H128.128L96.096 162.344ZM267.347 266.084V11.284H324.131V266.084H267.347ZM452.31 156.52C489.802 163.436 509.822 181.636 509.822 211.848C509.822 249.704 477.79 271.544 427.558 271.544C372.958 271.544 339.47 246.428 338.378 202.748H388.61C390.794 220.948 403.534 230.776 426.102 230.776C444.666 230.776 455.95 224.224 455.95 212.576C455.95 203.112 449.034 197.288 432.29 194.376L403.898 189.644C363.13 182.364 342.018 163.8 342.018 134.316C342.018 98.644 371.502 75.712 419.914 75.712C468.69 75.712 501.086 99.008 503.634 140.504H452.674C450.854 124.488 439.206 115.024 419.55 115.024C402.078 115.024 393.342 122.304 393.342 132.496C393.342 141.596 400.622 146.692 419.914 150.332L452.31 156.52ZM521.35 338.884V81.172H570.49V106.288C584.686 86.268 606.162 75.348 632.734 75.348C681.51 75.348 716.454 112.476 716.454 173.628C716.454 235.144 681.51 271.908 632.734 271.908C609.074 271.908 589.054 263.172 575.222 246.792V338.884H521.35ZM618.174 226.772C644.382 226.772 661.49 205.66 661.49 173.628C661.49 141.596 644.382 120.848 618.174 120.848C591.238 120.848 573.766 141.596 573.766 173.628C573.766 205.66 591.238 226.772 618.174 226.772ZM728.688 266.084V81.172H782.56V266.084H728.688ZM755.988 60.788C737.424 60.788 723.592 48.048 723.592 30.576C723.592 13.468 737.424 -1.78814e-05 755.988 -1.78814e-05C774.552 -1.78814e-05 788.384 13.468 788.384 30.576C788.384 48.048 774.552 60.788 755.988 60.788ZM801.269 133.588C801.269 99.372 819.833 81.172 855.505 81.172H916.293V126.308H855.505V266.084H801.269V133.588ZM1008.62 271.908C948.92 271.908 910.7 232.96 910.7 173.264C910.7 114.66 948.192 75.348 1008.62 75.348C1075.23 75.348 1109.44 122.668 1099.25 187.824H964.572C967.484 214.76 983.5 229.32 1008.62 229.32C1028.64 229.32 1042.1 219.856 1045.38 208.572H1098.52C1091.97 245.7 1057.39 271.908 1008.62 271.908ZM965.664 152.88H1047.2C1046.84 130.312 1031.91 116.48 1007.52 116.48C985.684 116.48 970.032 128.128 965.664 152.88Z" fill="#1E1E1E"/>
</svg>
